<?xml version="1.0" encoding="utf-8"?>
<!-- Generator: Adobe Illustrator 26.1.0, SVG Export Plug-In . SVG Version: 6.00 Build 0)  -->
<svg version="1.1" id="Warstwa_1" xmlns="http://www.w3.org/2000/svg" xmlns:xlink="http://www.w3.org/1999/xlink" x="0px" y="0px"
	 viewBox="0 0 150 35.2" style="enable-background:new 0 0 150 35.2;" xml:space="preserve">
<style type="text/css">
	.st0{fill:#DB001B;}
</style>
<path class="st0" d="M24.3,13.7h-3v-3C21.3,4.8,16.5,0,10.6,0S0,4.9,0,10.7v24.4h24.4c5.9,0,10.7-4.8,10.7-10.7
	C35.1,18.5,30.3,13.7,24.3,13.7z M24.3,30.1H4.9V10.7c0-3.1,2.5-5.6,5.6-5.6s5.6,2.5,5.6,5.6v8h5h3c3.1,0,5.6,2.5,5.6,5.6
	C30,27.6,27.5,30.1,24.3,30.1z M56.6,13.7H49c-5.9,0-10.7,4.8-10.7,10.7S43.1,35.2,49,35.2h7.6c5.9,0,10.7-4.8,10.7-10.7
	S62.6,13.7,56.6,13.7z M56.6,30.2H49c-3.1,0-5.6-2.5-5.6-5.6s2.5-5.6,5.6-5.6h7.6c3.1,0,5.6,2.5,5.6,5.6
	C62.3,27.6,59.8,30.2,56.6,30.2z M81.6,13.7c-5.9,0-10.7,4.8-10.7,10.7v10.6h5V24.5c0-3.1,2.5-5.7,5.7-5.7c3.2,0,5.7,2.5,5.7,5.7
	v10.6h5V24.5C92.4,18.5,87.5,13.7,81.6,13.7z M97.5,35.2h5V13.7h-5V35.2z M139.3,13.7h-7.6c-5.9,0-10.7,4.8-10.7,10.7
	s4.8,10.7,10.7,10.7h7.6c5.9,0,10.7-4.8,10.7-10.7S145.2,13.7,139.3,13.7z M139.3,30.2h-7.6c-3.1,0-5.6-2.5-5.6-5.6s2.5-5.6,5.6-5.6
	h7.6c3.1,0,5.6,2.5,5.6,5.6C144.9,27.6,142.3,30.2,139.3,30.2z M112.3,13.7h-5V27c0,4.5,3.7,8.1,8.1,8.1h2v-5h-2
	c-1.7,0-3.1-1.4-3.1-3.1v-3.1h5.1v-5h-5.1V13.7z"/>
</svg>
